<?xml version="1.0" standalone="no"?>
<!DOCTYPE svg PUBLIC "-//W3C//DTD SVG 20010904//EN"
 "http://www.w3.org/TR/2001/REC-SVG-20010904/DTD/svg10.dtd">
<svg version="1.0" xmlns="http://www.w3.org/2000/svg"
 width="300.000000pt" height="300.000000pt" viewBox="0 0 300.000000 300.000000"
 preserveAspectRatio="xMidYMid meet">
<metadata>
Created by potrace 1.14, written by Peter Selinger 2001-2017
</metadata>
<g transform="translate(0.000000,300.000000) scale(0.100000,-0.100000)"
fill="#000000" stroke="none">
<path d="M148 2980 c-55 -17 -97 -51 -119 -96 l-22 -46 1 -721 c0 -493 4 -749
12 -806 83 -597 509 -1091 1078 -1252 91 -25 108 -29 247 -48 54 -8 274 -6
340 2 230 30 481 128 675 265 103 73 249 212 321 307 149 195 279 496 275 634
-3 91 -77 165 -172 175 -99 9 -180 -57 -208 -171 -22 -85 -78 -218 -129 -303
-154 -260 -427 -453 -727 -516 -88 -19 -294 -25 -380 -12 -487 73 -866 452
-946 943 -4 22 -8 369 -9 772 -3 722 -3 733 -24 775 -37 76 -137 122 -213 98z"/>
<path d="M656 2983 c-56 -14 -119 -77 -131 -133 -5 -19 -8 -352 -8 -740 1
-788 -1 -761 72 -819 93 -74 220 -52 278 47 l25 43 -1 729 c-1 778 0 761 -49
816 -39 45 -126 71 -186 57z"/>
<path d="M1157 2978 c-44 -12 -94 -58 -114 -106 -12 -28 -14 -154 -14 -741 0
-682 1 -708 20 -772 90 -289 402 -420 673 -283 110 56 211 189 237 314 8 36
12 177 12 409 -1 341 -2 356 -22 398 -66 136 -264 135 -337 -2 -13 -26 -16
-81 -17 -380 -1 -373 -2 -379 -51 -406 -50 -27 -121 0 -134 52 -4 13 -7 328
-7 699 -1 741 1 716 -62 775 -52 50 -108 63 -184 43z"/>
<path d="M1727 2980 c-44 -13 -96 -58 -114 -98 -22 -50 -26 -317 -5 -380 19
-56 80 -109 138 -118 92 -13 162 21 202 97 22 43 23 58 23 202 0 111 -4 165
-14 189 -17 39 -62 86 -97 100 -34 14 -99 18 -133 8z"/>
<path d="M2210 2967 c-49 -27 -69 -46 -87 -87 -14 -30 -16 -127 -18 -755 l-2
-720 -27 -80 c-38 -113 -79 -179 -161 -261 -122 -122 -273 -180 -445 -172
-163 9 -278 61 -409 187 -80 77 -121 96 -187 88 -121 -13 -197 -146 -150 -258
27 -65 157 -186 276 -259 262 -158 594 -181 885 -59 252 105 462 335 549 601
47 146 49 179 49 925 0 641 -1 705 -17 747 -40 105 -160 153 -256 103z"/>
<path d="M2742 2979 c-43 -13 -104 -75 -118 -119 -6 -23 -10 -249 -9 -640 1
-601 1 -605 23 -647 58 -111 216 -133 301 -42 54 58 53 45 53 678 0 323 -3
606 -7 630 -13 77 -109 153 -190 150 -11 0 -35 -5 -53 -10z"/>
</g>
</svg>
